<svg width="265" height="107" viewBox="0 0 265 107" fill="none" xmlns="http://www.w3.org/2000/svg">
<path d="M4.41667 12.15C3.86667 12.15 3.35278 12.05 2.875 11.85C2.39722 11.6444 1.975 11.3639 1.60833 11.0083C1.24722 10.6528 0.963889 10.2389 0.758333 9.76667C0.552778 9.29444 0.45 8.78889 0.45 8.25C0.45 7.71111 0.552778 7.20556 0.758333 6.73333C0.963889 6.26111 1.24722 5.84722 1.60833 5.49167C1.975 5.13611 2.39722 4.85833 2.875 4.65833C3.35278 4.45278 3.86667 4.35 4.41667 4.35C4.91111 4.35 5.37778 4.43056 5.81667 4.59167C6.25556 4.75278 6.64722 4.98056 6.99167 5.275L6.56667 7.025C6.36111 6.68056 6.07778 6.39167 5.71667 6.15833C5.35556 5.91944 4.93889 5.8 4.46667 5.8C4.01667 5.8 3.60833 5.91111 3.24167 6.13333C2.88056 6.35 2.59444 6.64444 2.38333 7.01667C2.17222 7.38333 2.06667 7.79444 2.06667 8.25C2.06667 8.7 2.17222 9.11111 2.38333 9.48333C2.59444 9.85556 2.88056 10.1528 3.24167 10.375C3.60833 10.5917 4.01667 10.7 4.46667 10.7C4.93333 10.7 5.34722 10.5833 5.70833 10.35C6.075 10.1111 6.36111 9.81944 6.56667 9.475L6.99167 11.225C6.64167 11.5139 6.24722 11.7417 5.80833 11.9083C5.375 12.0694 4.91111 12.15 4.41667 12.15ZM10.0539 12.1333C9.5928 12.1333 9.17335 12.0139 8.79557 11.775C8.4178 11.5361 8.11502 11.2194 7.88724 10.825C7.66502 10.425 7.55391 9.98333 7.55391 9.5C7.55391 9.01667 7.66502 8.575 7.88724 8.175C8.11502 7.775 8.4178 7.45833 8.79557 7.225C9.17335 6.98611 9.5928 6.86667 10.0539 6.86667C10.3761 6.86667 10.6706 6.925 10.9372 7.04167C11.2039 7.15278 11.4317 7.30833 11.6206 7.50833V7H12.8706V12H11.6206V11.4917C11.4317 11.6917 11.2039 11.85 10.9372 11.9667C10.6706 12.0778 10.3761 12.1333 10.0539 12.1333ZM10.2289 10.8583C10.4734 10.8583 10.6956 10.7972 10.8956 10.675C11.0956 10.5528 11.2539 10.3889 11.3706 10.1833C11.4928 9.97778 11.5539 9.75 11.5539 9.5C11.5539 9.25 11.4928 9.02222 11.3706 8.81667C11.2539 8.61111 11.0956 8.44722 10.8956 8.325C10.6956 8.20278 10.4734 8.14167 10.2289 8.14167C9.98446 8.14167 9.76224 8.20278 9.56224 8.325C9.36224 8.44722 9.20113 8.61111 9.07891 8.81667C8.96224 9.02222 8.90391 9.25 8.90391 9.5C8.90391 9.75 8.96224 9.97778 9.07891 10.1833C9.20113 10.3889 9.36224 10.5528 9.56224 10.675C9.76224 10.7972 9.98446 10.8583 10.2289 10.8583ZM13.968 14.5V7H15.218V7.49167C15.4124 7.29722 15.6402 7.14444 15.9013 7.03333C16.168 6.92222 16.4596 6.86667 16.7763 6.86667C17.243 6.86667 17.6652 6.98611 18.043 7.225C18.4207 7.45833 18.7207 7.775 18.943 8.175C19.1707 8.575 19.2846 9.01667 19.2846 9.5C19.2846 9.98333 19.1707 10.425 18.943 10.825C18.7207 11.2194 18.4207 11.5361 18.043 11.775C17.6652 12.0139 17.243 12.1333 16.7763 12.1333C16.5096 12.1333 16.2624 12.0917 16.0346 12.0083C15.8069 11.9306 15.6013 11.8222 15.418 11.6833V14.5H13.968ZM16.6096 10.8583C16.8541 10.8583 17.0763 10.7972 17.2763 10.675C17.4763 10.5528 17.6346 10.3889 17.7513 10.1833C17.8735 9.97778 17.9346 9.75 17.9346 9.5C17.9346 9.25 17.8735 9.02222 17.7513 8.81667C17.6346 8.61111 17.4763 8.44722 17.2763 8.325C17.0763 8.20278 16.8541 8.14167 16.6096 8.14167C16.3652 8.14167 16.143 8.20278 15.943 8.325C15.743 8.44722 15.5819 8.61111 15.4596 8.81667C15.343 9.02222 15.2846 9.25 15.2846 9.5C15.2846 9.75 15.343 9.97778 15.4596 10.1833C15.5819 10.3889 15.743 10.5528 15.943 10.675C16.143 10.7972 16.3652 10.8583 16.6096 10.8583ZM20.4693 12V8.15H19.5359V7H20.4943V5.33333H21.8943V7H22.8859V8.15H21.9193V12H20.4693ZM23.6526 12V7H25.1026V12H23.6526ZM24.3776 6.275C24.1609 6.275 23.9776 6.2 23.8276 6.05C23.6776 5.9 23.6026 5.71667 23.6026 5.5C23.6026 5.27778 23.6776 5.09444 23.8276 4.95C23.9776 4.8 24.1609 4.725 24.3776 4.725C24.5998 4.725 24.7832 4.8 24.9276 4.95C25.0776 5.09444 25.1526 5.27778 25.1526 5.5C25.1526 5.71667 25.0776 5.9 24.9276 6.05C24.7832 6.2 24.5998 6.275 24.3776 6.275ZM28.6641 12.1667C28.1696 12.1667 27.7168 12.0472 27.3057 11.8083C26.8946 11.5694 26.5668 11.2472 26.3224 10.8417C26.0835 10.4361 25.9641 9.98889 25.9641 9.5C25.9641 9.00556 26.0835 8.55833 26.3224 8.15833C26.5668 7.75278 26.8946 7.43056 27.3057 7.19167C27.7168 6.95278 28.1696 6.83333 28.6641 6.83333C29.1641 6.83333 29.6168 6.95278 30.0224 7.19167C30.4335 7.43056 30.7585 7.75278 30.9974 8.15833C31.2418 8.55833 31.3641 9.00556 31.3641 9.5C31.3641 9.98889 31.2418 10.4361 30.9974 10.8417C30.7585 11.2472 30.4335 11.5694 30.0224 11.8083C29.6168 12.0472 29.1641 12.1667 28.6641 12.1667ZM28.6641 10.8667C28.9141 10.8667 29.1391 10.8056 29.3391 10.6833C29.5446 10.5611 29.7057 10.3972 29.8224 10.1917C29.9446 9.98056 30.0057 9.75 30.0057 9.5C30.0057 9.24444 29.9446 9.01389 29.8224 8.80833C29.7057 8.60278 29.5446 8.43889 29.3391 8.31667C29.1391 8.19444 28.9141 8.13333 28.6641 8.13333C28.4141 8.13333 28.1863 8.19444 27.9807 8.31667C27.7807 8.43889 27.6196 8.60278 27.4974 8.80833C27.3807 9.01389 27.3224 9.24444 27.3224 9.5C27.3224 9.75 27.3807 9.98056 27.4974 10.1917C27.6196 10.3972 27.7807 10.5611 27.9807 10.6833C28.1863 10.8056 28.4141 10.8667 28.6641 10.8667ZM32.2141 12V7H33.5141V7.55C33.6918 7.31667 33.9113 7.13889 34.1724 7.01667C34.4335 6.89444 34.7141 6.83333 35.0141 6.83333C35.3696 6.83333 35.7002 6.91944 36.0057 7.09167C36.3168 7.25833 36.5668 7.50556 36.7557 7.83333C36.9502 8.15556 37.0474 8.54722 37.0474 9.00833V12H35.5974V9.2C35.5974 8.92222 35.5141 8.675 35.3474 8.45833C35.1807 8.24167 34.9418 8.13333 34.6307 8.13333C34.3807 8.13333 34.1557 8.21944 33.9557 8.39167C33.7613 8.55833 33.6641 8.82222 33.6641 9.18333V12H32.2141Z" fill="#121212"/>
<path d="M13.728 50.272V43.36H24.096V68H13.728V60.064H11.136V68H0.768V43.36H11.136V50.272H13.728ZM36.9703 47.712C40.0423 47.712 42.4849 48.384 44.2983 49.728C46.1116 51.072 47.0609 52.9493 47.1463 55.36V59.008H36.3943V60.8C36.3943 61.376 36.6823 61.664 37.2583 61.664C37.8343 61.664 38.1223 61.376 38.1223 60.8V59.968L47.0503 60.448V61.12C47.0503 63.4453 46.1649 65.2587 44.3943 66.56C42.6236 67.84 40.1489 68.48 36.9703 68.48C34.1543 68.48 31.9036 67.84 30.2183 66.56C28.5543 65.28 27.5409 63.488 27.1783 61.184C27.1143 60.9067 27.0609 60.48 27.0183 59.904C26.9969 59.328 26.9863 58.656 26.9863 57.888C26.9863 57.1413 26.9969 56.48 27.0183 55.904C27.0609 55.3067 27.1143 54.8693 27.1783 54.592C27.5196 52.4373 28.5329 50.752 30.2183 49.536C31.9036 48.32 34.1543 47.712 36.9703 47.712ZM36.3943 55.552V56.704H38.1223V55.552C38.1223 54.976 37.8343 54.688 37.2583 54.688C36.6823 54.688 36.3943 54.976 36.3943 55.552ZM69.4225 68H61.2305C61.1452 67.5947 61.0705 67.1787 61.0065 66.752C60.9638 66.304 60.9425 65.7707 60.9425 65.152H60.6545C60.6545 65.6 60.4945 66.0907 60.1745 66.624C59.8758 67.136 59.3852 67.584 58.7025 67.968C58.0198 68.3307 57.1025 68.512 55.9505 68.512C54.3718 68.512 53.1238 68.2453 52.2065 67.712C51.2892 67.1787 50.6385 66.496 50.2545 65.664C49.8705 64.8107 49.6785 63.8933 49.6785 62.912V61.376C49.6785 59.328 50.3185 57.8347 51.5985 56.896C52.8785 55.9573 55.0438 55.488 58.0945 55.488C58.5212 55.488 58.9478 55.4987 59.3745 55.52C59.8225 55.5413 60.2918 55.5733 60.7825 55.616C60.8252 55.2533 60.7612 54.9867 60.5905 54.816C60.4412 54.6453 60.2492 54.5493 60.0145 54.528C59.6092 54.4853 59.2145 54.4533 58.8305 54.432C58.4678 54.3893 58.1052 54.368 57.7425 54.368C56.0358 54.368 54.5958 54.5707 53.4225 54.976C52.2705 55.3813 51.3638 55.776 50.7025 56.16L50.1265 49.248C52.0038 48.6933 53.7532 48.288 55.3745 48.032C57.0172 47.776 58.5212 47.648 59.8865 47.648C62.8305 47.648 65.1025 48.2453 66.7025 49.44C68.3238 50.6133 69.1345 52.3307 69.1345 54.592V64.288C69.1985 65.5467 69.2945 66.784 69.4225 68ZM60.1425 61.984V59.968C60.1425 59.8827 60.0998 59.7227 60.0145 59.488C59.9505 59.232 59.7052 59.104 59.2785 59.104C58.8518 59.104 58.5958 59.232 58.5105 59.488C58.4465 59.7227 58.4145 59.8827 58.4145 59.968V61.984C58.4145 62.048 58.4465 62.208 58.5105 62.464C58.5958 62.72 58.8518 62.848 59.2785 62.848C59.7052 62.848 59.9505 62.72 60.0145 62.464C60.0998 62.208 60.1425 62.048 60.1425 61.984ZM92.804 62.016C92.804 62.8907 92.8147 63.84 92.836 64.864C92.8787 65.888 92.9533 66.9333 93.06 68H84.132C84.0467 67.296 84.004 66.6027 84.004 65.92C84.004 65.216 84.0147 64.512 84.036 63.808H83.748C83.7267 64.5333 83.5347 65.2587 83.172 65.984C82.8307 66.7093 82.2973 67.3173 81.572 67.808C80.868 68.2773 79.9613 68.512 78.852 68.512C77.1667 68.512 75.844 68.2027 74.884 67.584C73.924 66.9653 73.22 66.144 72.772 65.12C72.324 64.0747 72.036 62.9333 71.908 61.696C71.8013 60.4587 71.748 59.2213 71.748 57.984C71.748 56.6187 71.8227 55.3173 71.972 54.08C72.1427 52.8213 72.4627 51.712 72.932 50.752C73.4013 49.7707 74.0947 49.0027 75.012 48.448C75.9293 47.8933 77.1453 47.6267 78.66 47.648C79.8973 47.648 80.8893 47.84 81.636 48.224C82.404 48.5867 83.012 49.0347 83.46 49.568V42.272H92.804V62.016ZM82.884 60.192V55.872C82.884 55.808 82.8413 55.648 82.756 55.392C82.692 55.136 82.4467 55.008 82.02 55.008C81.5933 55.008 81.3373 55.136 81.252 55.392C81.188 55.648 81.156 55.808 81.156 55.872V60.192C81.156 60.2773 81.188 60.448 81.252 60.704C81.3373 60.9387 81.5933 61.056 82.02 61.056C82.4467 61.056 82.692 60.9387 82.756 60.704C82.8413 60.448 82.884 60.2773 82.884 60.192ZM106.925 62.272L107.437 67.872C106.775 68.0213 105.986 68.128 105.069 68.192C104.173 68.2773 103.319 68.32 102.509 68.32C101.186 68.32 100.023 68.1067 99.0205 67.68C98.0392 67.232 97.2712 66.4213 96.7165 65.248C96.1832 64.0747 95.9165 62.3787 95.9165 60.16V42.272H105.133V60.928C105.133 61.5253 105.293 61.92 105.613 62.112C105.954 62.304 106.391 62.3573 106.925 62.272ZM109.955 47.296V42.272H119.171V47.296H109.955ZM119.171 68H109.955V48.16H119.171V68ZM136.003 47.648C137.603 47.648 138.862 47.8507 139.779 48.256C140.696 48.6613 141.368 49.2267 141.795 49.952C142.243 50.656 142.531 51.4773 142.659 52.416C142.787 53.3547 142.851 54.3573 142.851 55.424V68L133.475 68.032V56.16C133.475 56.096 133.432 55.936 133.347 55.68C133.283 55.424 133.038 55.296 132.611 55.296C132.184 55.296 131.928 55.424 131.843 55.68C131.779 55.936 131.747 56.096 131.747 56.16V68H122.275V55.136C122.275 54.4533 122.275 53.4613 122.275 52.16C122.296 50.8587 122.222 49.5253 122.051 48.16H130.179C130.435 49.504 130.563 50.8907 130.563 52.32H130.851C130.851 51.488 131.022 50.72 131.363 50.016C131.704 49.312 132.248 48.7467 132.995 48.32C133.763 47.872 134.766 47.648 136.003 47.648ZM155.414 47.712C158.486 47.712 160.929 48.384 162.742 49.728C164.555 51.072 165.505 52.9493 165.59 55.36V59.008H154.838V60.8C154.838 61.376 155.126 61.664 155.702 61.664C156.278 61.664 156.566 61.376 156.566 60.8V59.968L165.494 60.448V61.12C165.494 63.4453 164.609 65.2587 162.838 66.56C161.067 67.84 158.593 68.48 155.414 68.48C152.598 68.48 150.347 67.84 148.662 66.56C146.998 65.28 145.985 63.488 145.622 61.184C145.558 60.9067 145.505 60.48 145.462 59.904C145.441 59.328 145.43 58.656 145.43 57.888C145.43 57.1413 145.441 56.48 145.462 55.904C145.505 55.3067 145.558 54.8693 145.622 54.592C145.963 52.4373 146.977 50.752 148.662 49.536C150.347 48.32 152.598 47.712 155.414 47.712ZM154.838 55.552V56.704H156.566V55.552C156.566 54.976 156.278 54.688 155.702 54.688C155.126 54.688 154.838 54.976 154.838 55.552Z" fill="#121212"/>
<path d="M8.26562 92.7344L6.78906 93.6094C6.51302 93.1302 6.25 92.8177 6 92.6719C5.73958 92.5052 5.40365 92.4219 4.99219 92.4219C4.48698 92.4219 4.06771 92.5651 3.73438 92.8516C3.40104 93.1328 3.23438 93.487 3.23438 93.9141C3.23438 94.5026 3.67188 94.9766 4.54688 95.3359L5.75 95.8281C6.72917 96.224 7.44531 96.7083 7.89844 97.2812C8.35156 97.849 8.57812 98.5469 8.57812 99.375C8.57812 100.484 8.20833 101.401 7.46875 102.125C6.72396 102.854 5.79948 103.219 4.69531 103.219C3.64844 103.219 2.78385 102.909 2.10156 102.289C1.42969 101.669 1.01042 100.797 0.84375 99.6719L2.6875 99.2656C2.77083 99.974 2.91667 100.464 3.125 100.734C3.5 101.255 4.04688 101.516 4.76562 101.516C5.33333 101.516 5.80469 101.326 6.17969 100.945C6.55469 100.565 6.74219 100.083 6.74219 99.5C6.74219 99.2656 6.70833 99.0521 6.64062 98.8594C6.57812 98.6615 6.47656 98.4818 6.33594 98.3203C6.20052 98.1536 6.02344 98 5.80469 97.8594C5.58594 97.7135 5.32552 97.5755 5.02344 97.4453L3.85938 96.9609C2.20833 96.263 1.38281 95.2422 1.38281 93.8984C1.38281 92.9922 1.72917 92.2344 2.42188 91.625C3.11458 91.0104 3.97656 90.7031 5.00781 90.7031C6.39844 90.7031 7.48438 91.3802 8.26562 92.7344ZM12.1953 95.3906V99.7578C12.1953 101.018 12.6927 101.648 13.6875 101.648C14.6823 101.648 15.1797 101.018 15.1797 99.7578V95.3906H16.9375V99.7969C16.9375 100.406 16.862 100.932 16.7109 101.375C16.5651 101.771 16.3125 102.128 15.9531 102.445C15.3594 102.961 14.6042 103.219 13.6875 103.219C12.776 103.219 12.0234 102.961 11.4297 102.445C11.0651 102.128 10.8073 101.771 10.6562 101.375C10.5104 101.021 10.4375 100.495 10.4375 99.7969V95.3906H12.1953ZM20.9141 89.8047V96.2734C21.6172 95.5443 22.4141 95.1797 23.3047 95.1797C24.3307 95.1797 25.1849 95.5625 25.8672 96.3281C26.5495 97.0885 26.8906 98.0365 26.8906 99.1719C26.8906 100.344 26.5469 101.312 25.8594 102.078C25.1771 102.839 24.3151 103.219 23.2734 103.219C22.3932 103.219 21.6068 102.88 20.9141 102.203V103H19.1562V89.8047H20.9141ZM25.0938 99.25C25.0938 98.5208 24.8958 97.9271 24.5 97.4688C24.099 97 23.5964 96.7656 22.9922 96.7656C22.3464 96.7656 21.8203 96.9922 21.4141 97.4453C21.013 97.8932 20.8125 98.4766 20.8125 99.1953C20.8125 99.9349 21.0104 100.526 21.4062 100.969C21.8021 101.422 22.3229 101.648 22.9688 101.648C23.5781 101.648 24.0833 101.422 24.4844 100.969C24.8906 100.51 25.0938 99.9375 25.0938 99.25ZM30.5078 89.8047V103H28.75V89.8047H30.5078ZM34.4922 95.3906V103H32.7344V95.3906H34.4922ZM32.4688 92.2266C32.4688 91.9193 32.5807 91.6536 32.8047 91.4297C33.0286 91.2057 33.2969 91.0938 33.6094 91.0938C33.9271 91.0938 34.1979 91.2057 34.4219 91.4297C34.6458 91.6484 34.7578 91.9167 34.7578 92.2344C34.7578 92.5521 34.6458 92.8229 34.4219 93.0469C34.2031 93.2708 33.9349 93.3828 33.6172 93.3828C33.2995 93.3828 33.0286 93.2708 32.8047 93.0469C32.5807 92.8229 32.4688 92.5495 32.4688 92.2266ZM36.7188 95.3906H38.4844V96.0938C39.099 95.4844 39.7917 95.1797 40.5625 95.1797C41.4479 95.1797 42.138 95.4583 42.6328 96.0156C43.0599 96.4896 43.2734 97.263 43.2734 98.3359V103H41.5078V98.75C41.5078 98 41.4036 97.4818 41.1953 97.1953C40.9922 96.9036 40.6224 96.7578 40.0859 96.7578C39.5026 96.7578 39.0885 96.9505 38.8438 97.3359C38.6042 97.7161 38.4844 98.3802 38.4844 99.3281V103H36.7188V95.3906ZM52.4297 99.6094H46.9766C47.0234 100.234 47.2266 100.732 47.5859 101.102C47.9453 101.466 48.4062 101.648 48.9688 101.648C49.4062 101.648 49.7682 101.544 50.0547 101.336C50.3359 101.128 50.6562 100.742 51.0156 100.18L52.5 101.008C52.2708 101.398 52.0286 101.734 51.7734 102.016C51.5182 102.292 51.2448 102.521 50.9531 102.703C50.6615 102.88 50.3464 103.01 50.0078 103.094C49.6693 103.177 49.3021 103.219 48.9062 103.219C47.7708 103.219 46.8594 102.854 46.1719 102.125C45.4844 101.391 45.1406 100.417 45.1406 99.2031C45.1406 98 45.474 97.026 46.1406 96.2812C46.8125 95.5469 47.7031 95.1797 48.8125 95.1797C49.9323 95.1797 50.8177 95.5365 51.4688 96.25C52.1146 96.9583 52.4375 97.9401 52.4375 99.1953L52.4297 99.6094ZM50.625 98.1719C50.3802 97.2344 49.7891 96.7656 48.8516 96.7656C48.638 96.7656 48.4375 96.7995 48.25 96.8672C48.0625 96.9297 47.8906 97.0234 47.7344 97.1484C47.5833 97.2682 47.4531 97.4141 47.3438 97.5859C47.2344 97.7578 47.151 97.9531 47.0938 98.1719H50.625Z" fill="#121212"/>
</svg>
